<?xml version="1.0" encoding="utf-8"?>
<!-- Generator: Adobe Illustrator 27.4.1, SVG Export Plug-In . SVG Version: 6.00 Build 0)  -->
<svg version="1.1" id="Layer_1" xmlns="http://www.w3.org/2000/svg" xmlns:xlink="http://www.w3.org/1999/xlink" x="0px" y="0px"
	 viewBox="0 0 64 64" style="enable-background:new 0 0 64 64;" xml:space="preserve">
<style type="text/css">
	.st0{fill:#FFFFFF;}
</style>
<g id="rvmOaR.tif">
	<g>
		<path d="M18.9,15.2c1.6,1.3,3,2.6,4.4,3.7c0.9,0.7,1.7,1.4,2.7,1.9c1.6,0.9,3.2,0.6,4.4-0.9c1.1-1.3,1.4-2.9,1.9-4.5
			c0.4-1.1,0.8-2.2,1.3-3.3c0.2-0.4,0.7-0.8,1.2-0.9c3.5-1.2,6.3,0.3,7.3,4c0.5,1.8,0.8,3.8,1.1,5.7c0.1,0.9,0.5,1.4,1.4,1.7
			c2.7,1,4.6,3,5.8,5.6c0.9,2.1,0.5,4-0.7,5.8c-0.7,1.1-1.5,2-2.2,3.1c-0.3,0.5-0.6,1.1-0.8,1.7c-0.5,1.7-0.1,2.6,1.4,3.6
			c1.2,0.8,2.4,1.6,3.5,2.5c2.3,1.9,2.6,3.7,1.4,6.4c-1.9,4.2-7.5,6.9-11.9,5.7c-1.3-0.4-2.4-1.2-3.1-2.4c-0.8-1.2-1.4-2.6-2.1-4
			c-0.3-0.6-0.5-1.2-0.8-1.8c-0.6-1.2-1.5-2-2.9-2.4c-1.5-0.5-2.9-1.1-4.4-1.6c-3-1.1-5.9-0.9-8.8,0.4c-2,0.9-4.1,1.4-6.2,1.5
			c-2.2,0-3.9-0.8-5.1-2.7c-1.1-1.8-1-3.7,0.7-5.1c0.9-0.8,2.1-1.3,3.2-2c1.6-0.9,3.3-1.6,4.8-2.7c2.2-1.5,2.3-2.9,0.6-5
			c-1.2-1.4-2.6-2.6-3.9-3.9c-0.8-0.8-1.5-1.7-2.3-2.5c-1-1-1-2.2-0.5-3.3c1.3-2.8,3.6-4.4,6.6-4.8C17.4,14.9,18.2,15.1,18.9,15.2z
			 M50,48.5c0-0.3,0.1-0.6,0.1-0.8c-0.3,0-0.6,0-0.8,0c0.2-0.2,0.3-0.4,0.5-0.5c-0.4-0.3-0.8-0.5-1.1-0.7c-0.4-0.2-0.7-0.5-1.1-0.8
			c-1-0.6-1-0.9-0.1-1.6c-0.8-0.7-1.7-1.5-2.4-2.2c-0.3,0.1-0.6,0.3-0.9,0.2c-0.2-0.1-0.5-0.5-0.5-0.8c0-1,0-1.9,0.2-2.9
			c0.1-0.6,0.7-0.7,1.1-0.3c0.1,0.1,0.2,0.2,0.3,0.3c0.6-1.1,1.1-2,1.7-3c-1-0.1-1.1-0.5-0.6-1.3c0.3-0.5,0.7-1,1-1.5
			c0.5-0.9,0.9-0.9,1.6,0c0.5-1.1,0.6-2.2,0.1-3.4c-0.2,0.3-0.3,0.5-0.5,0.7c0.1,0.1,0.2,0.2,0.2,0.3c0,0.4,0.1,0.9-0.1,1.2
			c-0.1,0.2-0.6,0.2-1,0.2c-0.3,0-0.6-0.1-0.9-0.2c-0.7-0.2-0.8-0.7-0.2-1.2c0.3-0.2,0.7-0.4,1.1-0.6c-0.1-0.2-0.2-0.4-0.3-0.6
			c-0.2-0.4-0.5-0.7-0.7-1.1c-0.6-0.8-0.5-1.2,0.5-1.5c-0.4-0.4-0.8-0.8-1.2-1.2c0.3,1.1,0.3,1.1-0.2,2c-0.1,0.3-0.2,0.5-0.4,0.8
			c-0.2,0.3-0.6,0.7-0.7,0.6c-0.4-0.2-0.9-0.5-1-0.9c-0.2-0.5-0.1-1.1,0-1.6c0.1-1,0.4-1.3,1.6-1.4c-0.4-0.2-0.7-0.3-1.1-0.5
			c-0.2,0.4-0.4,0.8-0.8,1.4c-0.8-0.6-1.5-1.1-2.2-1.8c-0.2-0.2-0.4-0.8-0.3-1.1c0-0.2,0.6-0.2,1-0.4c-0.2-1.1-0.3-2.2-0.5-3.4
			c-0.9,0.7-1.3,0.6-1.5-0.4c-0.1-0.5-0.3-1-0.4-1.6c-0.1-0.4-0.2-0.8,0-1.1c0.1-0.2,0.6-0.2,1-0.3c-0.4-1-0.9-1.9-2-2.6
			c0,1.1-0.2,1.2-1.2,1c-0.4-0.1-0.7,0-1.1,0c-0.4,0-0.8,0.1-1-0.1c-0.2-0.2-0.2-0.6-0.2-1c-1.1,0.6-1.1,1.8-1.5,2.9
			c1.2-0.1,1.4,0.1,1.1,1.2c-0.2,0.5-0.3,1.1-0.5,1.6c-0.2,0.4-0.4,0.8-0.7,1c-0.2,0.1-0.6-0.2-0.9-0.4c-0.6,0.9-1.2,1.8-1.8,2.7
			c0.2,0.2,0.7,0.5,0.6,0.7c0,0.3-0.3,0.7-0.6,0.9c-0.7,0.4-1.5,0.7-2.3,0.9c-0.3,0.1-0.8,0-1-0.2c-0.2-0.2,0-0.7,0-1
			c-1-0.4-2-0.8-3.1-1.2c-0.2,0.9-0.6,1.1-1.1,0.7c-0.7-0.5-1.4-1.1-2.1-1.7c-0.4-0.4-0.4-0.8,0.2-1.1c0.1-0.1,0.2-0.1,0.4-0.2
			c-0.9-0.8-1.7-1.5-2.6-2.3c-0.1,1.1-0.4,1.2-1.3,0.7c-0.4-0.2-1-0.2-1.5-0.1c-0.7,0.2-1.3,0.5-1.9,0.8c-0.6,0.3-1,0.2-1.1-0.4
			c0-0.1,0-0.2-0.1-0.4c-0.1,0-0.1-0.1-0.2-0.1c-0.7,0.8-1.3,1.7-2,2.5c0,0.1,0.1,0.2,0.1,0.2c0.6-0.3,1-0.2,1.2,0.4
			c0.1,0.4,0.3,0.7,0.5,1c0.7,0.8,0.6,1.2-0.5,1.5c0.8,0.8,1.6,1.6,2.5,2.4c0.3-1.1,0.8-1.2,1.5-0.5c0.4,0.4,0.9,0.9,1.3,1.3
			c0.8,0.8,0.7,1.2-0.3,1.6c0.6,1,1.1,1.9,1.7,2.8c0.3-0.1,0.8-0.3,1-0.1c0.2,0.2,0.4,0.7,0.4,1c-0.2,0.9-0.4,1.7-0.7,2.5
			c-0.1,0.3-0.6,0.6-0.9,0.7c-0.2,0-0.5-0.4-0.7-0.6c-0.8,0.7-1.7,1.4-2.6,2.1c0.9,0.5,0.9,1,0,1.5c-0.6,0.3-1.1,0.6-1.7,0.9
			C13.4,39,13,39.1,12.7,39c-0.2-0.1-0.3-0.6-0.5-1c-0.9,0.5-1.9,1-3,1.5c1.1,0.5,1.2,0.7,0.6,1.5c-0.2,0.2-0.3,0.5-0.4,0.8
			c-0.1,0.3-0.1,0.7-0.3,0.8c-0.2,0.2-0.6,0.1-1,0.1c0.5,1,1.1,1.9,2.2,2.4c0-1.1,0.2-1.2,1.3-1c0.7,0.1,1.5,0.1,2.2,0.1
			c-0.1-0.6-0.2-1.1-0.3-1.7c-0.1-0.5-0.2-1.1,0.4-1.3c0.6-0.2,1.1,0.1,1.4,0.6c0.3,0.5,0.4,1,0.6,1.5c0.2,0.5,0,1-0.4,1.2
			c-0.4,0.2-0.9,0.2-1.5,0.3c0,0-0.1,0.3-0.3,0.7c1.2-0.3,2.3-0.6,3.5-0.9c-0.9-0.8-0.8-1.2,0.1-1.6c0.6-0.2,1.1-0.5,1.7-0.7
			c0.3-0.1,0.8-0.2,1.1-0.1c0.2,0.1,0.2,0.6,0.3,0.8c0.3,0,0.7-0.1,1.1-0.1c-0.8-0.2-0.9-0.9-1.1-1.5c-0.7-1.7-0.3-2.2,1.6-2.1
			c0.1,0,0.1,0,0.2,0c0.6,0.1,0.7,0.3,0.6,1c-0.1,0.5,0,1,0,1.5c0,0.3,0,0.7,0.1,1.1c0.3,0,0.6,0,0.9,0c0-0.4-0.2-0.8-0.1-1
			c0.1-0.2,0.6-0.3,0.9-0.3c0.7,0.1,1.4,0.2,2.1,0.3c0.3,0.1,0.8,0.3,0.9,0.6c0.1,0.2-0.2,0.6-0.3,1c1,0.3,2,0.7,3.2,1.1
			c-0.1-1.1,0.3-1.4,1.2-1c0.6,0.2,1.1,0.4,1.7,0.6c1.1,0.4,1.2,0.9,0.4,1.5c0.8,0.8,1.6,1.6,2.3,2.3c0.2-0.2,0.6-0.5,0.8-0.5
			c0.3,0.1,0.6,0.4,0.7,0.7c0.3,0.5,0.5,1.1,0.7,1.7c0.1,0.3,0.2,0.8,0.1,1.1c-0.1,0.2-0.6,0.3-1,0.4c0.5,0.9,1.1,1.9,1.7,2.9
			c0.4-1.1,0.8-1.2,1.5-0.5c0.3,0.3,0.7,0.5,1,0.7c1,0.4,1,0.6,0.3,1.6c1.2-0.1,2.3-0.1,3.6-0.2c-0.9-0.9-0.8-1.3,0.2-1.7
			c0.5-0.2,0.9-0.4,1.4-0.6c0.9-0.5,1.2-0.4,1.5,0.8c0.9-0.8,1.7-1.6,2.5-2.4c-1.2-0.2-1.3-0.5-0.8-1.5c0.2-0.3,0.3-0.7,0.5-1.1
			c0.1-0.3,0.2-0.8,0.4-0.9c0.2-0.1,0.7,0,1,0.1c-0.1-1-0.7-2.1-1.7-2.7c0,0.2-0.1,0.4-0.1,0.7c0.2,0,0.4,0,0.4,0
			c0.3,0.3,0.6,0.6,0.8,0.9c-0.2,0.2-0.5,0.3-0.7,0.5C50.6,48.3,50.3,48.4,50,48.5z M44.1,28.1c0.5-0.2,1-0.3,1.1-0.5
			c0.1-0.2,0-0.8-0.2-0.9c-0.2-0.1-0.8,0-0.9,0.2C43.8,27.1,44,27.5,44.1,28.1z M20.5,40c0.3,0.5,0.3,1,0.6,1.1
			c0.2,0.1,0.8-0.1,0.9-0.3c0.1-0.2-0.1-0.7-0.3-0.9C21.4,39.8,21,40,20.5,40z M15.1,41.6c-0.5,0.3-1,0.4-1,0.6
			c-0.1,0.2,0.1,0.6,0.2,0.9c0.3-0.1,0.8-0.1,0.9-0.3C15.3,42.6,15.1,42.2,15.1,41.6z M46.9,31.2c0.4-0.2,0.7-0.2,0.8-0.4
			c0.1-0.2-0.1-0.5-0.2-0.7c-0.2,0.1-0.6,0.1-0.7,0.3C46.7,30.5,46.8,30.8,46.9,31.2z"/>
		<path class="st0" d="M50,48.5c0.3-0.1,0.6-0.2,0.8-0.3c0.3-0.1,0.5-0.3,0.7-0.5c-0.3-0.3-0.5-0.6-0.8-0.9c-0.1-0.1-0.3,0-0.4,0
			c0-0.2,0.1-0.5,0.1-0.7c1,0.6,1.7,1.6,1.7,2.7c-0.3,0-0.8-0.2-1-0.1c-0.2,0.1-0.3,0.6-0.4,0.9c-0.2,0.4-0.3,0.7-0.5,1.1
			c-0.5,1-0.4,1.2,0.8,1.5c-0.9,0.8-1.7,1.6-2.5,2.4c-0.2-1.2-0.5-1.3-1.5-0.8c-0.5,0.2-0.9,0.5-1.4,0.6c-1,0.4-1.1,0.7-0.2,1.7
			c-1.2,0.1-2.3,0.1-3.6,0.2c0.7-1,0.6-1.2-0.3-1.6c-0.4-0.2-0.7-0.4-1-0.7c-0.8-0.7-1.1-0.6-1.5,0.5c-0.6-1.1-1.2-2-1.7-2.9
			c0.4-0.2,0.9-0.2,1-0.4c0.1-0.3,0-0.7-0.1-1.1c-0.2-0.6-0.4-1.1-0.7-1.7c-0.2-0.3-0.5-0.6-0.7-0.7c-0.2,0-0.5,0.3-0.8,0.5
			c-0.7-0.7-1.5-1.5-2.3-2.3c0.8-0.7,0.7-1.1-0.4-1.5c-0.6-0.2-1.2-0.4-1.7-0.6c-0.9-0.4-1.3-0.1-1.2,1c-1.1-0.4-2.2-0.7-3.2-1.1
			c0.1-0.4,0.4-0.8,0.3-1c-0.1-0.3-0.6-0.5-0.9-0.6c-0.7-0.2-1.4-0.3-2.1-0.3c-0.3,0-0.7,0.1-0.9,0.3c-0.1,0.2,0,0.6,0.1,1
			c-0.2,0-0.6,0-0.9,0c0-0.4-0.1-0.8-0.1-1.1c0-0.5,0-1,0-1.5c0.1-0.6,0-0.9-0.6-1c-0.1,0-0.1,0-0.2,0c-1.8-0.1-2.2,0.4-1.6,2.1
			c0.2,0.6,0.3,1.3,1.1,1.5c-0.4,0-0.8,0.1-1.1,0.1c0-0.2,0-0.7-0.3-0.8c-0.3-0.2-0.7,0-1.1,0.1c-0.6,0.2-1.1,0.5-1.7,0.7
			c-0.9,0.4-1,0.8-0.1,1.6c-1.2,0.3-2.3,0.6-3.5,0.9c0.2-0.4,0.2-0.7,0.3-0.7c0.6-0.1,1.1-0.1,1.5-0.3c0.5-0.2,0.6-0.7,0.4-1.2
			c-0.2-0.5-0.3-1-0.6-1.5c-0.3-0.5-0.8-0.8-1.4-0.6c-0.6,0.2-0.5,0.8-0.4,1.3c0.1,0.5,0.2,1.1,0.3,1.7c-0.7,0-1.5,0-2.2-0.1
			c-1.1-0.2-1.2-0.1-1.3,1c-1.1-0.5-1.7-1.4-2.2-2.4c0.4,0,0.8,0.1,1-0.1c0.2-0.2,0.2-0.6,0.3-0.8c0.1-0.3,0.2-0.5,0.4-0.8
			c0.6-0.7,0.5-1-0.6-1.5c1.1-0.6,2.1-1.1,3-1.5c0.2,0.4,0.3,0.9,0.5,1c0.3,0.1,0.7,0,1.1-0.2c0.6-0.2,1.1-0.6,1.7-0.9
			c0.9-0.5,0.9-1,0-1.5c0.9-0.7,1.8-1.5,2.6-2.1c0.2,0.2,0.5,0.7,0.7,0.6c0.3-0.1,0.8-0.4,0.9-0.7c0.3-0.8,0.6-1.6,0.7-2.5
			c0.1-0.3-0.1-0.8-0.4-1c-0.2-0.1-0.6,0.1-1,0.1c-0.5-0.9-1.1-1.9-1.7-2.8c1-0.4,1.1-0.7,0.3-1.6c-0.4-0.4-0.9-0.9-1.3-1.3
			c-0.8-0.7-1.2-0.6-1.5,0.5c-0.8-0.8-1.6-1.6-2.5-2.4c1.1-0.3,1.2-0.7,0.5-1.5c-0.2-0.3-0.4-0.6-0.5-1c-0.2-0.6-0.6-0.7-1.2-0.4
			c0-0.1-0.1-0.2-0.1-0.2c0.7-0.8,1.3-1.7,2-2.5c0.1,0,0.1,0.1,0.2,0.1c0,0.1,0,0.2,0.1,0.4c0.1,0.6,0.5,0.7,1.1,0.4
			c0.6-0.3,1.3-0.7,1.9-0.8c0.5-0.1,1-0.1,1.5,0.1c0.9,0.4,1.2,0.3,1.3-0.7c0.9,0.8,1.7,1.5,2.6,2.3c-0.2,0.1-0.3,0.2-0.4,0.2
			c-0.5,0.3-0.6,0.7-0.2,1.1c0.7,0.6,1.4,1.2,2.1,1.7c0.6,0.4,1,0.1,1.1-0.7c1,0.4,2.1,0.8,3.1,1.2c0,0.3-0.1,0.8,0,1
			c0.2,0.2,0.7,0.3,1,0.2c0.8-0.2,1.6-0.5,2.3-0.9c0.3-0.2,0.6-0.5,0.6-0.9c0-0.2-0.4-0.5-0.6-0.7c0.6-0.9,1.2-1.8,1.8-2.7
			c0.3,0.1,0.7,0.5,0.9,0.4c0.3-0.2,0.5-0.6,0.7-1c0.2-0.5,0.3-1.1,0.5-1.6c0.3-1.1,0.1-1.4-1.1-1.2c0.4-1,0.4-2.2,1.5-2.9
			c0.1,0.4,0,0.9,0.2,1c0.2,0.2,0.7,0.1,1,0.1c0.4,0,0.7,0,1.1,0c1,0.2,1.2,0.1,1.2-1c1.1,0.6,1.6,1.6,2,2.6c-0.4,0.1-0.9,0.1-1,0.3
			c-0.2,0.3,0,0.7,0,1.1c0.1,0.5,0.2,1,0.4,1.6c0.2,1,0.6,1.1,1.5,0.4c0.2,1.2,0.4,2.4,0.5,3.4c-0.4,0.1-1,0.2-1,0.4
			c-0.1,0.3,0,0.9,0.3,1.1c0.6,0.6,1.4,1.1,2.2,1.8c0.3-0.6,0.5-0.9,0.8-1.4c0.3,0.2,0.6,0.3,1.1,0.5c-1.1,0.1-1.5,0.4-1.6,1.4
			c-0.1,0.5-0.1,1.1,0,1.6c0.1,0.4,0.6,0.7,1,0.9c0.1,0.1,0.5-0.4,0.7-0.6c0.2-0.2,0.3-0.5,0.4-0.8c0.6-1,0.6-1,0.2-2
			c0.4,0.4,0.8,0.8,1.2,1.2c-1.1,0.4-1.2,0.7-0.5,1.5c0.3,0.3,0.5,0.7,0.7,1.1c0.1,0.2,0.2,0.4,0.3,0.6c-0.4,0.2-0.8,0.3-1.1,0.6
			c-0.6,0.5-0.5,1,0.2,1.2c0.3,0.1,0.6,0.2,0.9,0.2c0.3,0,0.9,0,1-0.2c0.2-0.3,0.1-0.8,0.1-1.2c0-0.1-0.1-0.2-0.2-0.3
			c0.1-0.2,0.3-0.4,0.5-0.7c0.5,1.2,0.4,2.3-0.1,3.4c-0.6-0.9-1-0.8-1.6,0c-0.3,0.5-0.7,1-1,1.5c-0.5,0.8-0.3,1.2,0.6,1.3
			c-0.6,1-1.1,2-1.7,3c-0.1-0.1-0.2-0.2-0.3-0.3c-0.4-0.4-1-0.3-1.1,0.3c-0.1,1-0.2,1.9-0.2,2.9c0,0.3,0.2,0.7,0.5,0.8
			c0.2,0.1,0.6-0.1,0.9-0.2c0.8,0.7,1.6,1.5,2.4,2.2c-0.9,0.7-0.9,1,0.1,1.6c0.4,0.2,0.7,0.5,1.1,0.8c0.3,0.2,0.7,0.4,1.1,0.7
			c-0.2,0.2-0.3,0.4-0.5,0.5l0,0c-0.2,0.3-0.4,0.6-0.7,0.9C49.1,48.5,49.6,48.5,50,48.5C50,48.5,50,48.5,50,48.5L50,48.5z
			 M35.7,14.3c-0.1-0.2-0.3-0.4-0.4-0.4c-0.2,0-0.6,0-0.7,0.2c-0.1,0.2-0.1,0.7,0,0.8c0.4,0.3,0.9,0.4,1.4,0.6
			c0.1-0.1,0.1-0.1,0.2-0.2C36,14.9,35.9,14.6,35.7,14.3L35.7,14.3z M10.9,43.6c0.1-0.1,0.2-0.1,0.3-0.2c0.1-0.2,0.2-0.5,0.2-0.7
			c-0.2-0.1-0.5-0.2-0.7-0.2c-0.5,0.1-0.9,0.2-1.3,0.4c-0.2,0.1-0.4,0.5-0.3,0.7C9.1,43.7,9.5,44,9.7,44
			C10.1,44,10.5,43.7,10.9,43.6L10.9,43.6z M34.5,44.1c0,0.1,0.1,0.1,0.1,0.2c-0.5,0.9-0.3,1.8,0.4,2.3c0.6,0.5,1.3,0.4,2.1-0.4
			c0.4-0.4,0.8-0.7,1.3-1c0.8-0.5,0.9-1,0.3-1.7c-0.6-0.7-1.4-1-2.2-0.7C35.7,43.1,35.1,43.6,34.5,44.1z M26.3,22.6
			c-0.6,0-1.2-0.3-1.6-0.1c-1.3,0.6-1.6,2.6-0.7,3.7c0.5,0.6,1.3,0.7,2.1,0.4c0.7-0.3,0.8-0.9,0.6-1.6c-0.1-0.3,0-0.6,0.1-0.9
			C27.1,23.3,27.1,23.2,26.3,22.6z M18.6,27.7c-0.4,0.6-0.3,1.3,0,2c0.2,0.4,0.4,0.4,0.8,0.2c0.4-0.2,0.9-0.3,1.4-0.3
			c0.8,0,1.2-0.2,1.4-0.9c0.2-0.7-0.1-1.5-0.7-1.8C20.5,26.3,19.1,26.7,18.6,27.7z M35.1,19.9c-0.6-0.1-1.2-0.3-1.8-0.2
			c-0.8,0-1.6,0.8-1.6,1.4c-0.1,0.6,0.4,1.2,1.2,1.5c1.1,0.4,1.8-0.2,2.5-0.9C36,21.1,35.9,20.5,35.1,19.9z M40.8,19.6
			c-1-0.6-3.3,0.3-3.5,1.3c-0.1,0.5,0.1,1.1,0.3,1.5c0.3,0.5,0.8,0.1,1.2-0.1c0.5-0.2,0.9-0.3,1.4-0.4c0.5-0.1,1-0.1,1-0.8
			C41.3,20.5,41.2,19.9,40.8,19.6z M18.6,35.6c-0.6,0-1-0.1-1.4,0c-1,0.2-1.2,1-0.6,1.8c0.3,0.4,0.6,0.8,1,1.1
			c0.5,0.5,1.2,0.5,1.8,0.2c0.6-0.4,0.5-1,0.3-1.4C19.4,36.6,19,36.2,18.6,35.6z M46.1,36c0-0.1,0.1-0.4,0-0.5
			c-0.4-0.4-0.8-0.9-1.3-1.2c-0.7-0.4-1.8-0.1-2.1,0.6c-0.1,0.2,0,0.7,0.1,0.9c0.3,0.4,0.8,0.7,1.1,1c0.9,0.8,0.9,0.8,1.6-0.1
			C45.7,36.5,45.8,36.3,46.1,36z M28.4,40.7c-0.2,0.6-0.4,1.2-0.5,1.8c0,0.3,0.2,0.8,0.4,0.9c0.4,0.2,1,0.2,1.5,0.2
			c0.1,0,0.2-0.2,0.2-0.3c0.2-0.5,0.3-1,0.5-1.4c0.3-0.7,0.1-1.5-0.5-1.8C29.3,39.8,28.9,40,28.4,40.7z M41.8,51.7
			c0.3-0.8,0.1-1.3-0.6-1.2c-0.8,0.1-1.6,0.2-2.4,0.5c-0.9,0.3-1,1.1-0.4,1.9c0.2,0.3,0.4,0.3,0.7,0.1c0.4-0.3,0.9-0.5,1.4-0.7
			C41,52.1,41.4,51.9,41.8,51.7z M43.4,43.6c-0.4,0.6-0.2,1.3,0.4,1.6c0.6,0.4,2.1,0,2.4-0.6c0.2-0.4-0.5-1.9-1-2.2
			C44.7,42.1,44,42.6,43.4,43.6z M48.5,50.4c-0.3,0-0.7-0.1-1-0.1c-0.4,0-0.7,0.3-0.5,0.8c0.4,0.8,0.9,1.6,1.4,2.3
			c0.2,0.4,0.5,0.3,0.9,0c0.5-0.5,0.7-1.2,0.3-1.8C49.3,51.2,48.9,50.8,48.5,50.4z M18.2,18.8c-0.1,0.4-0.2,0.8-0.2,1.1
			c0,0.6,0.4,0.9,0.9,1c0.5,0.1,0.7-0.2,0.9-0.6c0.1-0.3,0.3-0.5,0.5-0.7c0.5-0.4,0.4-0.8,0-1.2C19.6,17.8,18.8,18,18.2,18.8z
			 M15.9,22.5c-0.7-0.4-1.8-0.1-2.2,0.6c-0.3,0.5-0.1,1,0.6,1.4c0.7,0.3,1.8,0,2.2-0.7C16.7,23.4,16.5,22.8,15.9,22.5z M11.5,41.4
			c0.4-0.1,0.9,0,1.1-0.3c0.2-0.2,0.2-0.7,0.1-1c-0.1-0.3-0.3-0.6-0.5-0.9c-0.3-0.6-0.8-0.6-1.3-0.3c-0.5,0.3-0.6,0.8-0.3,1.3
			C10.8,40.6,11.1,40.9,11.5,41.4z M42.6,53.2c0,0.7,0,1.3,0.1,1.9c0,0.6,0.4,0.8,1,0.7c0.6-0.1,0.9-0.5,0.7-1.1
			c-0.1-0.5-0.2-0.9-0.4-1.3c-0.1-0.2-0.3-0.5-0.5-0.5C43.3,52.9,43,53.1,42.6,53.2z M13,20.8c0.3,0.1,0.4,0.2,0.6,0.3
			c0.2,0,0.5,0,0.8,0c0-0.3,0.1-0.5,0-0.8c-0.2-0.4-0.5-0.8-0.8-1.1c-0.3-0.4-0.8-0.5-1.2-0.1C12,19.5,12,20,12.4,20.3
			C12.6,20.5,12.8,20.7,13,20.8z M37.6,14.8c0,0.2,0.1,0.6,0.3,1c0.1,0.1,0.6-0.1,0.9-0.2c0.2-0.1,0.4-0.2,0.5-0.4
			c0.1-0.2,0.4-0.4,0.3-0.6c-0.1-0.2-0.3-0.5-0.5-0.6C38.5,13.8,38,14,37.6,14.8z"/>
		<path class="st0" d="M44.1,28.1c0-0.6-0.2-1-0.1-1.2c0.2-0.2,0.7-0.3,0.9-0.2c0.2,0.1,0.3,0.7,0.2,0.9
			C45,27.8,44.6,27.9,44.1,28.1z"/>
		<path class="st0" d="M20.5,40c0.6-0.1,1-0.2,1.2-0.1c0.2,0.1,0.4,0.7,0.3,0.9c-0.1,0.2-0.7,0.4-0.9,0.3C20.8,41,20.7,40.5,20.5,40
			z"/>
		<path class="st0" d="M15.1,41.6c0.1,0.6,0.2,1,0.1,1.2C15,43,14.6,43,14.3,43.1c-0.1-0.3-0.3-0.7-0.2-0.9
			C14.1,42,14.5,41.9,15.1,41.6z"/>
		<path class="st0" d="M46.9,31.2c-0.1-0.4-0.2-0.7-0.1-0.8c0.1-0.2,0.4-0.2,0.7-0.3c0.1,0.2,0.2,0.5,0.2,0.7
			C47.6,30.9,47.3,31,46.9,31.2z"/>
		<path class="st0" d="M49.4,47.6c0.3,0,0.6,0,0.8,0c0,0.3-0.1,0.6-0.1,0.8c0,0,0,0,0,0C49.3,48.4,49.2,48.3,49.4,47.6L49.4,47.6z"
			/>
		<path d="M34.5,44.1c0.6-0.4,1.2-1,1.9-1.3c0.8-0.4,1.6,0,2.2,0.7c0.6,0.7,0.5,1.2-0.3,1.7c-0.4,0.3-0.9,0.6-1.3,1
			c-0.8,0.7-1.4,0.9-2.1,0.4c-0.7-0.5-0.8-1.4-0.4-2.3C34.6,44.2,34.5,44.1,34.5,44.1z M37.9,43.2c-0.5,0.2-1,0.3-1.1,0.5
			c-0.1,0.2,0.1,0.6,0.2,0.9c0.3-0.1,0.8-0.1,0.9-0.3C38,44.2,37.9,43.7,37.9,43.2z"/>
		<path d="M26.3,22.6c0.8,0.6,0.8,0.7,0.4,1.5c-0.1,0.3-0.2,0.6-0.1,0.9c0.2,0.7,0.2,1.2-0.6,1.6c-0.7,0.3-1.6,0.2-2.1-0.4
			c-1-1.1-0.7-3.1,0.7-3.7C25.1,22.3,25.8,22.6,26.3,22.6z M25.8,24.7c-0.5,0.2-1,0.3-1.1,0.5c-0.1,0.2,0.1,0.6,0.2,0.9
			c0.3-0.1,0.8-0.1,0.9-0.3C25.9,25.7,25.8,25.3,25.8,24.7z"/>
		<path d="M18.6,27.7c0.6-1,1.9-1.4,2.9-0.9c0.6,0.3,0.9,1,0.7,1.8c-0.2,0.7-0.6,0.9-1.4,0.9c-0.5,0-1,0.1-1.4,0.3
			c-0.4,0.2-0.6,0.1-0.8-0.2C18.2,29,18.2,28.3,18.6,27.7z M21.5,27.6c-0.1,0-0.2-0.1-0.3-0.1c-0.3,0.1-0.7,0.2-0.8,0.4
			c-0.1,0.2,0.1,0.6,0.2,0.9c0.3-0.1,0.7-0.1,0.9-0.3C21.6,28.3,21.5,27.9,21.5,27.6z"/>
		<path d="M35.1,19.9c0.8,0.6,0.9,1.2,0.2,1.9c-0.7,0.7-1.4,1.3-2.5,0.9c-0.8-0.3-1.3-0.9-1.2-1.5c0.1-0.7,0.9-1.4,1.6-1.4
			C33.9,19.7,34.5,19.8,35.1,19.9z M33.4,20.7c0.3,0.5,0.3,1,0.6,1.1c0.2,0.1,0.6-0.1,0.9-0.2c-0.1-0.3-0.1-0.8-0.3-0.9
			C34.4,20.5,34,20.7,33.4,20.7z"/>
		<path d="M40.8,19.6c0.5,0.3,0.6,0.9,0.5,1.5c-0.1,0.6-0.5,0.7-1,0.8c-0.5,0-0.9,0.2-1.4,0.4c-0.4,0.1-0.8,0.6-1.2,0.1
			c-0.3-0.4-0.4-1-0.3-1.5C37.5,19.9,39.7,19,40.8,19.6z M38.8,20.5c-0.5,0.2-1,0.3-1.1,0.5c-0.1,0.2,0,0.8,0.2,0.9
			c0.2,0.1,0.8,0,0.9-0.2C39,21.5,38.9,21,38.8,20.5z"/>
		<path d="M18.6,35.6c0.3,0.5,0.7,1,1,1.6c0.2,0.5,0.3,1.1-0.3,1.4c-0.6,0.4-1.2,0.3-1.8-0.2c-0.4-0.3-0.7-0.7-1-1.1
			c-0.6-0.8-0.3-1.5,0.6-1.8C17.6,35.5,18.1,35.6,18.6,35.6z M18.1,38.7c0.5-0.2,1-0.3,1.1-0.5c0.1-0.2,0-0.8-0.2-0.9
			c-0.2-0.1-0.7,0-0.9,0.2C17.9,37.7,18.1,38.1,18.1,38.7z"/>
		<path d="M46.1,36c-0.2,0.3-0.4,0.4-0.5,0.6c-0.7,1-0.7,1-1.6,0.1c-0.4-0.3-0.8-0.6-1.1-1c-0.2-0.2-0.2-0.6-0.1-0.9
			c0.3-0.7,1.4-1,2.1-0.6c0.5,0.3,0.9,0.7,1.3,1.2C46.2,35.6,46.1,35.9,46.1,36z M43.1,34.7c0.2,0.5,0.3,1,0.5,1.1
			c0.2,0.1,0.8,0,0.9-0.2c0.1-0.2,0-0.7-0.2-0.9C44.1,34.6,43.6,34.7,43.1,34.7z"/>
		<path d="M28.4,40.7c0.5-0.7,0.9-0.9,1.5-0.6c0.6,0.3,0.8,1.1,0.5,1.8c-0.2,0.5-0.3,0.9-0.5,1.4c0,0.1-0.2,0.3-0.2,0.3
			c-0.5,0-1,0-1.5-0.2c-0.2-0.1-0.4-0.6-0.4-0.9C28,41.9,28.2,41.3,28.4,40.7z M28.5,40.7c0.3,0.5,0.3,1,0.6,1.1
			c0.2,0.1,0.6-0.1,0.9-0.2c-0.1-0.3-0.1-0.8-0.3-0.9C29.5,40.5,29.1,40.6,28.5,40.7z"/>
		<path d="M41.8,51.7c-0.4,0.2-0.8,0.4-1.3,0.6c-0.5,0.2-1,0.4-1.4,0.7c-0.3,0.2-0.5,0.2-0.7-0.1c-0.6-0.7-0.5-1.5,0.4-1.9
			c0.8-0.3,1.6-0.5,2.4-0.5C42,50.5,42.2,50.9,41.8,51.7z M40.3,50.9c0.1,0.4,0.2,0.7,0.3,0.8c0.2,0.1,0.5-0.1,0.7-0.2
			c-0.1-0.2-0.1-0.5-0.2-0.7C41,50.8,40.7,50.9,40.3,50.9z"/>
		<path d="M43.4,43.6c0.6-0.9,1.3-1.4,1.8-1.2c0.5,0.3,1.2,1.8,1,2.2c-0.4,0.6-1.8,1-2.4,0.6C43.2,44.8,43,44.2,43.4,43.6z
			 M43.5,43.8c0.2,0.5,0.3,1,0.5,1.1c0.2,0.1,0.8,0,0.9-0.2c0.1-0.2,0-0.7-0.2-0.9C44.5,43.6,44.1,43.8,43.5,43.8z"/>
		<path d="M48.5,50.4c0.4,0.4,0.8,0.8,1.1,1.3c0.4,0.6,0.2,1.3-0.3,1.8c-0.3,0.3-0.6,0.3-0.9,0c-0.5-0.8-0.9-1.5-1.4-2.3
			c-0.2-0.4,0-0.7,0.5-0.8C47.9,50.2,48.2,50.3,48.5,50.4z M47.3,50.7c0.2,0.4,0.2,0.7,0.4,0.8c0.2,0.1,0.5-0.1,0.7-0.1
			c-0.1-0.3,0-0.6-0.2-0.7C48.1,50.6,47.7,50.7,47.3,50.7z"/>
		<path d="M18.2,18.8c0.6-0.9,1.4-1,2.1-0.3c0.4,0.4,0.6,0.8,0,1.2c-0.2,0.2-0.4,0.4-0.5,0.7c-0.2,0.4-0.4,0.7-0.9,0.6
			c-0.5-0.1-0.9-0.4-0.9-1C18,19.6,18.2,19.2,18.2,18.8z M18.5,20.8c0.5-0.3,1-0.3,1.1-0.6c0.1-0.2,0-0.8-0.2-0.9
			c-0.2-0.1-0.7,0-0.9,0.2C18.3,19.8,18.4,20.2,18.5,20.8z"/>
		<path d="M15.9,22.5c0.6,0.3,0.8,0.9,0.6,1.3c-0.4,0.7-1.5,1-2.2,0.7c-0.6-0.3-0.8-0.8-0.6-1.4C14.1,22.5,15.1,22.1,15.9,22.5z
			 M16,22.8c-0.1-0.1-0.2-0.1-0.3-0.2c-0.3,0.1-0.7,0.2-0.8,0.4c-0.1,0.2,0.1,0.6,0.2,0.9c0.3-0.1,0.8-0.1,0.9-0.3
			C16.2,23.6,16,23.1,16,22.8z"/>
		<path d="M11.5,41.4c-0.4-0.5-0.7-0.8-0.9-1.2c-0.3-0.5-0.2-1,0.3-1.3c0.5-0.3,1-0.3,1.3,0.3c0.2,0.3,0.4,0.6,0.5,0.9
			c0.1,0.3,0.1,0.8-0.1,1C12.4,41.3,11.9,41.3,11.5,41.4z M11.3,40.1c0.2,0.4,0.2,0.7,0.4,0.8c0.2,0.1,0.5-0.1,0.7-0.1
			c-0.1-0.2,0-0.6-0.2-0.7C12,39.9,11.7,40.1,11.3,40.1z"/>
		<path d="M42.6,53.2c0.3-0.1,0.6-0.3,0.9-0.3c0.2,0,0.4,0.3,0.5,0.5c0.2,0.4,0.3,0.9,0.4,1.3c0.2,0.6-0.1,1-0.7,1.1
			c-0.6,0.1-0.9-0.1-1-0.7C42.7,54.5,42.7,53.9,42.6,53.2z M43.1,54.5c0.4-0.2,0.7-0.2,0.8-0.4c0.1-0.2-0.1-0.5-0.1-0.7
			c-0.3,0.1-0.6,0-0.7,0.2C42.9,53.7,43,54.1,43.1,54.5z"/>
		<path d="M13,20.8c-0.1-0.1-0.4-0.3-0.6-0.5C12,20,12,19.5,12.3,19.1c0.4-0.5,0.9-0.3,1.2,0.1c0.3,0.3,0.6,0.7,0.8,1.1
			c0.1,0.2,0,0.5,0,0.8c-0.3,0-0.5,0-0.8,0C13.4,21,13.2,20.9,13,20.8z M13.2,21c0.4-0.1,0.7-0.2,0.8-0.3c0.1-0.2-0.1-0.5-0.2-0.7
			c-0.2,0.1-0.6,0.1-0.7,0.2C13.1,20.3,13.2,20.6,13.2,21z"/>
		<path d="M10.9,43.5c-0.4,0.2-0.8,0.4-1.2,0.4c-0.2,0-0.6-0.3-0.7-0.5c-0.1-0.2,0.1-0.6,0.3-0.7c0.4-0.2,0.9-0.3,1.3-0.4
			c0.2,0,0.5,0.1,0.7,0.2c-0.1,0.2-0.1,0.5-0.2,0.7C11.1,43.4,11,43.5,10.9,43.5c0-0.2,0.2-0.4,0.1-0.5c-0.1-0.2-0.4-0.4-0.5-0.4
			c-0.2,0-0.4,0.3-0.5,0.5c0,0.1,0.2,0.4,0.4,0.5C10.5,43.7,10.7,43.6,10.9,43.5z"/>
		<path d="M37.6,14.8c0.4-0.8,0.9-1,1.5-0.8c0.2,0.1,0.5,0.4,0.5,0.6c0,0.1-0.2,0.4-0.3,0.6c-0.1,0.2-0.3,0.3-0.5,0.4
			c-0.3,0.1-0.9,0.3-0.9,0.2C37.7,15.4,37.6,15,37.6,14.8z M38.6,14.5c-0.4,0.2-0.7,0.3-0.8,0.4c-0.1,0.2,0.1,0.5,0.1,0.7
			c0.2-0.1,0.6-0.1,0.7-0.2C38.8,15.2,38.6,14.9,38.6,14.5z"/>
		<path d="M35.7,14.4c0.1,0.3,0.3,0.6,0.4,0.9c-0.1,0.1-0.1,0.1-0.2,0.2c-0.5-0.2-1-0.4-1.4-0.6c-0.1-0.1-0.2-0.6,0-0.8
			c0.1-0.2,0.5-0.2,0.7-0.2C35.4,13.9,35.6,14.1,35.7,14.4c-0.3-0.1-0.6-0.2-0.8-0.1c-0.1,0-0.2,0.3-0.1,0.5c0,0.1,0.2,0.3,0.4,0.4
			C35.7,15.2,35.8,14.8,35.7,14.4z"/>
		<path class="st0" d="M35.7,14.4c0.1,0.5,0,0.8-0.6,0.7c-0.1,0-0.3-0.2-0.4-0.4c0-0.1,0.1-0.5,0.1-0.5
			C35.2,14.2,35.4,14.3,35.7,14.4C35.7,14.3,35.7,14.4,35.7,14.4z"/>
		<path d="M49.4,47.6c-0.2,0.7-0.1,0.9,0.7,0.9c0,0-0.1,0.1-0.1,0.1c-0.4,0-0.8-0.1-1.2-0.1C49,48.2,49.2,47.9,49.4,47.6z"/>
		<path class="st0" d="M37.9,43.2c0,0.6,0.2,1,0,1.2c-0.2,0.2-0.6,0.2-0.9,0.3c-0.1-0.3-0.3-0.7-0.2-0.9
			C36.9,43.5,37.3,43.4,37.9,43.2z"/>
		<path class="st0" d="M25.8,24.7c0,0.6,0.2,1,0,1.2c-0.2,0.2-0.6,0.2-0.9,0.3c-0.1-0.3-0.3-0.7-0.2-0.9
			C24.8,25,25.2,24.9,25.8,24.7z"/>
		<path class="st0" d="M21.5,27.6c0,0.3,0.2,0.7,0,0.9c-0.2,0.2-0.6,0.2-0.9,0.3c-0.1-0.3-0.3-0.7-0.2-0.9c0.1-0.2,0.5-0.3,0.8-0.4
			C21.3,27.5,21.4,27.5,21.5,27.6z"/>
		<path class="st0" d="M33.4,20.7c0.6-0.1,1-0.2,1.2-0.1c0.2,0.1,0.2,0.6,0.3,0.9c-0.3,0.1-0.7,0.3-0.9,0.2
			C33.8,21.7,33.7,21.2,33.4,20.7z"/>
		<path class="st0" d="M38.8,20.5c0,0.6,0.2,1,0,1.2c-0.1,0.2-0.7,0.3-0.9,0.2c-0.2-0.1-0.3-0.7-0.2-0.9
			C37.9,20.8,38.3,20.7,38.8,20.5z"/>
		<path class="st0" d="M18.1,38.7c0-0.6-0.2-1-0.1-1.2c0.1-0.2,0.7-0.4,0.9-0.2c0.2,0.1,0.4,0.7,0.2,0.9
			C19.1,38.4,18.6,38.4,18.1,38.7z"/>
		<path class="st0" d="M43.1,34.7c0.6,0,1-0.2,1.2,0c0.2,0.2,0.3,0.7,0.2,0.9c-0.1,0.2-0.7,0.3-0.9,0.2
			C43.3,35.7,43.3,35.3,43.1,34.7z"/>
		<path class="st0" d="M28.5,40.7c0.6,0,1-0.2,1.2-0.1c0.2,0.1,0.2,0.6,0.3,0.9c-0.3,0.1-0.7,0.3-0.9,0.2
			C28.8,41.7,28.8,41.2,28.5,40.7z"/>
		<path class="st0" d="M40.3,50.9c0.4,0,0.7-0.1,0.8,0c0.2,0.1,0.2,0.4,0.2,0.7c-0.3,0.1-0.5,0.2-0.7,0.2
			C40.5,51.7,40.5,51.3,40.3,50.9z"/>
		<path class="st0" d="M43.5,43.8c0.6,0,1-0.2,1.2,0c0.2,0.1,0.4,0.7,0.2,0.9c-0.1,0.2-0.7,0.3-0.9,0.2
			C43.8,44.8,43.8,44.4,43.5,43.8z"/>
		<path class="st0" d="M47.3,50.7c0.4,0,0.8-0.2,0.9-0.1c0.2,0.2,0.1,0.5,0.2,0.7c-0.2,0-0.5,0.2-0.7,0.1
			C47.5,51.4,47.5,51.1,47.3,50.7z"/>
		<path class="st0" d="M18.5,20.8c0-0.6-0.2-1-0.1-1.2c0.1-0.2,0.7-0.4,0.9-0.2c0.2,0.1,0.3,0.6,0.2,0.9
			C19.4,20.4,19,20.5,18.5,20.8z"/>
		<path class="st0" d="M16,22.8c0,0.3,0.2,0.7,0,0.9c-0.2,0.2-0.6,0.2-0.9,0.3c-0.1-0.3-0.3-0.7-0.2-0.9c0.1-0.2,0.5-0.3,0.8-0.4
			C15.9,22.7,15.9,22.8,16,22.8z"/>
		<path class="st0" d="M11.3,40.1c0.4,0,0.7-0.1,0.9,0c0.2,0.1,0.1,0.4,0.2,0.7c-0.2,0.1-0.5,0.2-0.7,0.1
			C11.5,40.8,11.5,40.5,11.3,40.1z"/>
		<path class="st0" d="M43.1,54.5c-0.1-0.4-0.2-0.7-0.1-0.8c0.2-0.2,0.5-0.1,0.7-0.2c0.1,0.2,0.2,0.5,0.1,0.7
			C43.8,54.3,43.5,54.3,43.1,54.5z"/>
		<path class="st0" d="M13.2,21c0-0.4-0.1-0.7,0-0.8c0.1-0.2,0.4-0.1,0.7-0.2c0.1,0.2,0.2,0.5,0.2,0.7C14,20.8,13.6,20.9,13.2,21z"
			/>
		<path class="st0" d="M10.9,43.5c-0.2,0-0.4,0.1-0.5,0.1c-0.2-0.1-0.4-0.4-0.4-0.5c0.1-0.2,0.3-0.4,0.5-0.5c0.1,0,0.4,0.2,0.5,0.4
			C11.1,43.1,10.9,43.4,10.9,43.5C10.9,43.6,10.9,43.5,10.9,43.5z"/>
		<path class="st0" d="M38.6,14.5c0,0.4,0.2,0.8,0.1,0.9c-0.1,0.2-0.4,0.2-0.7,0.2c-0.1-0.2-0.2-0.5-0.1-0.7
			C37.9,14.7,38.2,14.7,38.6,14.5z"/>
	</g>
</g>
</svg>
